<svg width="109" height="36" fill="none" xmlns="http://www.w3.org/2000/svg"><path d="M12.457 20.395a10.241 10.241 0 01-1.254 1.804 9.327 9.327 0 01-1.629 1.512 7.835 7.835 0 01-1.933 1.043 6.123 6.123 0 01-2.168.387 5.115 5.115 0 01-1.711-.293 4.875 4.875 0 01-1.489-.832 4.283 4.283 0 01-1.043-1.29 3.674 3.674 0 01-.386-1.687c0-.602.12-1.16.363-1.676.242-.523.555-1 .938-1.43.39-.43.828-.812 1.312-1.148.492-.336.988-.62 1.488-.855a2.37 2.37 0 01-.949-.387 2.91 2.91 0 01-.715-.703 3.107 3.107 0 01-.445-.914 3.506 3.506 0 01-.152-1.02c0-.476.086-.926.257-1.347.172-.43.403-.825.692-1.184a5.61 5.61 0 011.031-.984 6.863 6.863 0 012.566-1.22 5.78 5.78 0 011.336-.163c.641 0 1.227.129 1.758.387.531.25 1 .617 1.406 1.101l-1.699 1.242a5.228 5.228 0 00-.539-.633 2.986 2.986 0 00-.62-.515 2.899 2.899 0 00-.716-.352 2.471 2.471 0 00-.808-.129c-.36 0-.715.067-1.067.2a2.97 2.97 0 00-.926.539 2.73 2.73 0 00-.668.82 2.28 2.28 0 00-.246 1.055c0 .398.086.77.258 1.113.172.336.399.629.68.879s.601.445.96.586c.368.14.743.21 1.126.21.437 0 .844-.07 1.219-.21l.175.48c-.632.203-1.265.465-1.898.785a7.7 7.7 0 00-1.688 1.137c-.5.445-.906.961-1.218 1.547-.305.586-.457 1.25-.457 1.992 0 .43.062.828.187 1.195.125.368.305.688.54.961.241.274.534.489.878.645a2.89 2.89 0 001.184.234c.453 0 .96-.09 1.523-.27a9.387 9.387 0 001.652-.738 8.787 8.787 0 001.477-1.042c.445-.391.781-.79 1.008-1.196l.41.364zm10.781 3.21a2.908 2.908 0 01-.351.575c-.14.18-.305.34-.492.48a2.37 2.37 0 01-.598.34 1.909 1.909 0 01-.668.117c-.617 0-1.063-.168-1.336-.504-.266-.343-.398-.808-.398-1.394v-.211a9.01 9.01 0 01-.48.797 3.77 3.77 0 01-.599.715 2.851 2.851 0 01-.738.515 2.06 2.06 0 01-.914.2c-.508 0-.957-.098-1.348-.294a2.941 2.941 0 01-.984-.785 3.463 3.463 0 01-.598-1.172 4.937 4.937 0 01-.199-1.418 6.1 6.1 0 01.352-2.027 6.138 6.138 0 011.008-1.816 5.272 5.272 0 011.558-1.29 4.13 4.13 0 012.027-.503c.297 0 .594.027.891.082.297.054.578.144.844.27.273.116.52.273.738.468.227.195.41.434.55.715l-1.745.738a2.788 2.788 0 00-.328-.422 1.948 1.948 0 00-.399-.363 1.98 1.98 0 00-.457-.246 1.436 1.436 0 00-.515-.094c-.407 0-.77.125-1.09.375a3.58 3.58 0 00-.809.926 4.87 4.87 0 00-.504 1.172 4.172 4.172 0 00-.176 1.125c0 .297.028.633.082 1.008.063.367.168.714.317 1.043.148.328.344.605.586.832.242.226.547.34.914.34.289 0 .539-.063.75-.188.21-.133.39-.3.539-.504.148-.21.27-.45.363-.715a4.47 4.47 0 00.223-.832c.055-.281.09-.558.105-.832.024-.281.035-.531.035-.75v-.808l2.133-.75v4.757c0 .157.04.301.117.434.079.125.2.187.364.187.195 0 .37-.07.527-.21a2.19 2.19 0 00.387-.446l.316.363zm6.492-1.84a3.455 3.455 0 01-1.008 2.461 3.29 3.29 0 01-1.1.739c-.423.18-.88.27-1.372.27-.21 0-.441-.02-.691-.06a4.921 4.921 0 01-.727-.175 4.173 4.173 0 01-.691-.293 1.903 1.903 0 01-.528-.422l1.383-1.805c.094.149.207.313.34.493.14.172.293.332.457.48.172.149.352.274.539.375.195.094.39.14.586.14a1.688 1.688 0 001.16-.445c.149-.148.266-.32.352-.515a1.58 1.58 0 00.129-.645c0-.312-.11-.597-.329-.855a5.019 5.019 0 00-.761-.762c-.29-.25-.594-.504-.914-.762a3.751 3.751 0 01-.762-.867l-1.219 1.781-.457-.34 1.406-1.945a3.714 3.714 0 01-.257-.715c-.063-.25-.094-.5-.094-.75 0-.21.035-.433.105-.668.07-.234.172-.449.305-.644s.293-.356.48-.48c.196-.133.418-.2.668-.2.243 0 .446.074.61.223.172.148.258.355.258.621 0 .14-.024.281-.07.422-.047.14-.106.281-.176.422a4.29 4.29 0 01-.235.41 24.8 24.8 0 01-.246.351c.188.266.39.497.61.692.218.195.433.379.644.55.21.172.414.344.61.516.195.172.363.367.503.586.149.219.266.473.352.762.094.289.14.64.14 1.055zm-2.66-5.554c0-.11-.039-.191-.117-.246a.39.39 0 00-.246-.082c-.133 0-.227.047-.281.14a.534.534 0 00-.082.293c0 .157.023.309.07.457.055.149.121.29.2.422l.116-.21c.055-.087.106-.176.153-.27a2.1 2.1 0 00.129-.281.625.625 0 00.058-.223zm12.258 7.828c0 .563-.07 1.11-.21 1.64a6.898 6.898 0 01-.587 1.512c-.242.477-.531.91-.867 1.301a5.871 5.871 0 01-1.102 1.02 4.79 4.79 0 01-1.242.668 3.745 3.745 0 01-1.324.246c-.336 0-.652-.059-.95-.176a3.644 3.644 0 01-.843-.445l1.313-1.664c.117.093.246.191.386.293.149.101.301.191.457.27.157.085.317.151.48.198.173.055.34.082.505.082.297 0 .547-.09.75-.27.21-.179.383-.41.515-.69a4.47 4.47 0 00.317-.962c.078-.351.133-.703.164-1.054.039-.352.062-.688.07-1.008.008-.313.012-.57.012-.773v-4.723a35.7 35.7 0 01-.246.996c-.102.383-.23.79-.387 1.219-.148.422-.32.843-.516 1.265a6.582 6.582 0 01-.668 1.125c-.242.336-.515.61-.82.82a1.687 1.687 0 01-.972.305c-.36 0-.633-.078-.82-.234a1.48 1.48 0 01-.4-.61 3.007 3.007 0 01-.128-.82 32.612 32.612 0 01-.012-.855v-5.063a.798.798 0 00-.117-.41.388.388 0 00-.363-.21.788.788 0 00-.54.222c-.156.14-.28.281-.374.422l-.317-.352a3.042 3.042 0 01.844-1.054c.187-.141.387-.25.598-.329.218-.086.445-.129.68-.129.609 0 1.046.172 1.312.516.273.336.41.793.41 1.371v5.016c.008.07.023.14.047.21a.584.584 0 00.105.177c.047.046.11.07.188.07.148 0 .3-.086.457-.258.156-.172.304-.371.445-.598.14-.226.262-.453.363-.68.102-.226.176-.394.223-.503a9.08 9.08 0 00.375-1.102c.11-.398.203-.804.281-1.218.086-.422.157-.836.211-1.243.063-.414.11-.808.14-1.183l2.157-.75v8.402zM65.48 10.55l-1.968 2.38a7.854 7.854 0 00-.668-1.477 5.411 5.411 0 00-.973-1.23 4.54 4.54 0 00-1.277-.844A3.896 3.896 0 0059 9.063a2.91 2.91 0 00-1.172.234c-.36.148-.676.36-.95.633a2.97 2.97 0 00-.632.949 3.129 3.129 0 00-.223 1.184c0 .437.082.847.246 1.23.165.383.383.73.657 1.043.273.305.586.57.937.797.36.226.73.402 1.114.527.382.133.785.281 1.207.445a11.1 11.1 0 011.242.575 9.37 9.37 0 011.16.738c.367.266.691.566.973.902.28.336.504.711.668 1.125.164.407.246.852.246 1.336 0 .703-.157 1.336-.47 1.899a4.449 4.449 0 01-1.206 1.406 5.51 5.51 0 01-1.723.879 6.436 6.436 0 01-1.957.305c-.453 0-.914-.067-1.383-.2a7.028 7.028 0 01-1.336-.539 8.235 8.235 0 01-1.195-.808 6.336 6.336 0 01-.96-.985l1.898-2.18c.117.376.32.774.609 1.196.297.422.64.812 1.031 1.172.39.36.809.66 1.254.902.453.235.89.352 1.313.352.242 0 .492-.063.75-.188s.492-.285.703-.48a3.03 3.03 0 00.539-.657c.14-.234.21-.464.21-.69 0-.345-.07-.669-.21-.974a3.645 3.645 0 00-.563-.878 4.567 4.567 0 00-.797-.75 6.721 6.721 0 00-.937-.622 7.495 7.495 0 00-.973-.48c-.32-.14-.617-.25-.89-.328a7.257 7.257 0 01-1.582-.703 6.177 6.177 0 01-1.36-1.102 5.402 5.402 0 01-.96-1.441 4.156 4.156 0 01-.364-1.723c0-.523.082-1.02.246-1.488.164-.469.39-.903.68-1.301a5.773 5.773 0 011.02-1.078c.39-.328.812-.602 1.265-.82a6.555 6.555 0 011.418-.516 6.456 6.456 0 014.535.55 7.06 7.06 0 012.403 2.04zm5.368 13.079c-.18.383-.387.676-.621.879a2.578 2.578 0 01-.692.445c-.258.11-.523.172-.797.188-.351 0-.64-.055-.867-.164a1.446 1.446 0 01-.527-.434 1.793 1.793 0 01-.27-.61 3.402 3.402 0 01-.07-.69v-6.141h-1.242l.504-1.172h.738v-4.15l2.144-.75v4.899h2.227l-.48 1.172h-1.747V23.3c0 .187.043.336.13.445.085.11.195.168.328.176.132 0 .28-.05.445-.152.164-.102.324-.266.48-.493l.317.352zm9.761.41c0 .563-.07 1.11-.21 1.64a6.898 6.898 0 01-.587 1.512c-.242.477-.53.91-.867 1.301a5.867 5.867 0 01-1.101 1.02c-.39.289-.805.511-1.242.668a3.745 3.745 0 01-1.325.246c-.336 0-.652-.059-.949-.176a3.64 3.64 0 01-.844-.445l1.313-1.664c.117.093.246.191.387.293.148.101.3.191.457.27.156.085.316.151.48.198.172.055.34.082.504.082.297 0 .547-.09.75-.27.21-.179.383-.41.516-.69a4.47 4.47 0 00.316-.962c.078-.351.133-.703.164-1.054.04-.352.063-.688.07-1.008.008-.313.012-.57.012-.773v-4.723c-.062.273-.144.605-.246.996-.101.383-.23.79-.387 1.219-.148.422-.32.843-.515 1.265a6.583 6.583 0 01-.668 1.125c-.243.336-.516.61-.82.82a1.687 1.687 0 01-.973.305c-.36 0-.633-.078-.82-.234a1.48 1.48 0 01-.399-.61 3.007 3.007 0 01-.129-.82 32.612 32.612 0 01-.012-.855v-5.063a.8.8 0 00-.117-.41.388.388 0 00-.363-.21.788.788 0 00-.54.222 2.28 2.28 0 00-.374.422l-.317-.352a3.042 3.042 0 01.844-1.054c.188-.141.387-.25.598-.329.219-.086.445-.129.68-.129.609 0 1.046.172 1.312.516.274.336.41.793.41 1.371v5.016c.008.07.024.14.047.21a.586.586 0 00.105.177c.047.046.11.07.188.07.149 0 .3-.086.457-.258.156-.172.305-.371.445-.598.141-.226.262-.453.364-.68.101-.226.175-.394.222-.503a9.08 9.08 0 00.375-1.102c.11-.398.203-.804.282-1.218.085-.422.156-.836.21-1.243.063-.414.11-.808.141-1.183l2.156-.75v8.402zm6.692-.41a2.635 2.635 0 01-.364.574c-.14.18-.3.34-.48.48-.18.141-.379.25-.598.329a1.72 1.72 0 01-.656.129c-.61 0-1.055-.168-1.336-.504-.273-.344-.41-.809-.41-1.395V8.945l2.156-.75v15.106c0 .156.035.3.106.433.07.125.195.188.375.188s.347-.07.504-.211c.164-.148.293-.293.386-.434l.317.352zm9.316-.914a8.26 8.26 0 01-.902.984c-.32.305-.672.57-1.055.797a5.494 5.494 0 01-1.195.54c-.422.132-.86.198-1.313.198a4.08 4.08 0 01-1.593-.304 3.924 3.924 0 01-1.254-.856 3.949 3.949 0 01-.82-1.289 4.374 4.374 0 01-.294-1.605c0-.47.067-.93.2-1.383a5.34 5.34 0 01.562-1.277 6.11 6.11 0 01.856-1.102 5.606 5.606 0 011.101-.879 5.37 5.37 0 011.266-.562 4.51 4.51 0 011.37-.211c.329 0 .638.039.927.117.296.078.558.203.785.375.226.164.406.379.539.644a2 2 0 01.2.926c0 .297-.09.61-.27.938a5.04 5.04 0 01-.692.984c-.281.328-.601.652-.96.973-.36.312-.727.605-1.102.879-.367.265-.723.5-1.067.703-.344.203-.644.36-.902.468.289.36.625.653 1.008.88a2.355 2.355 0 002.05.187c.282-.11.551-.246.81-.41.265-.164.515-.344.75-.54.241-.195.456-.378.644-.55l.351.375zm-2.824-4.453c0-.18-.031-.352-.094-.516a1.135 1.135 0 00-.246-.422 1.15 1.15 0 00-.398-.293 1.092 1.092 0 00-.516-.117c-.352 0-.676.125-.973.375a3.492 3.492 0 00-.773.902c-.211.36-.379.743-.504 1.149a3.8 3.8 0 00-.176 1.055c0 .296.047.601.14.914.095.312.224.613.388.902.312-.172.652-.41 1.02-.715a8.777 8.777 0 001.019-.996c.32-.367.586-.746.797-1.137.21-.39.316-.758.316-1.101z" fill="#fff"/><path stroke="#fff" d="M46.5 0v36"/></svg>